<svg width="150" height="150" viewBox="0 0 150 150" fill="none" xmlns="http://www.w3.org/2000/svg">
<g clip-path="url(#clip0_701_238)">
<path d="M75 0C116.4 0 150 33.6 150 75C150 116.4 116.4 150 75 150C33.6 150 0 116.4 0 75C0 33.6 33.6 0 75 0Z" fill="#ECFF0F"/>
<mask id="mask0_701_238" style="mask-type:alpha" maskUnits="userSpaceOnUse" x="0" y="0" width="150" height="150">
<path d="M75 0C116.4 0 150 33.6 150 75C150 116.4 116.4 150 75 150C33.6 150 0 116.4 0 75C0 33.6 33.6 0 75 0Z" fill="#ECFF0F"/>
</mask>
<g mask="url(#mask0_701_238)">
<path d="M108.7 34.6H107.7H105.3V27.8H101.9H98.5V21H95.1H91.8H88.4H85H84H81.6H81.4H78.2H74.8H71.4H68H64.6H61.2H57.8H54.4V27.8H51H47.6V34.6H44.2H40.8V65.1H38.4H37.4H34V85.5H37.4H40.8V150H44.2H47.6H51H54.4H57.8H61.2H63.6H64.6H68H71.4H74.8V127.9H78.2H78.4H81.6H85H88.4H91.8H95.1H98.5V121.1H101.9H105.3V114.4H108.7V114.3V114.4H112.1V34.6H108.7Z" fill="black"/>
<path d="M40.8 34.6H37.4V65.2H40.8V34.6Z" fill="#00F6FF"/>
<path d="M40.8 85.5H37.4V150H40.8V85.5Z" fill="#00F6FF"/>
<path d="M34 65.1H30.6V85.5H34V65.1Z" fill="#00F6FF"/>
<path d="M47.5999 27.8H44.2V34.6H47.5999V27.8Z" fill="#00F6FF"/>
<path d="M54.4 21H51V27.8H54.4V21Z" fill="#00F6FF"/>
<path d="M78.2 127.9H74.8V150H78.2V127.9Z" fill="#FF00FC"/>
<path d="M115.5 34.6H112.1V114.4H115.5V34.6Z" fill="#FF00FC"/>
<path d="M101.9 21H98.5V27.8H101.9V21Z" fill="#FF00FC"/>
<path d="M101.9 121.1H98.5V127.9H101.9V121.1Z" fill="#FF00FC"/>
<path d="M108.7 114.4H105.3V121.2H108.7V114.4Z" fill="#FF00FC"/>
<path d="M108.7 27.8H105.3V34.6H108.7V27.8Z" fill="#FF00FC"/>
</g>
</g>
<defs>
<clipPath id="clip0_701_238">
<rect width="150" height="150" fill="white"/>
</clipPath>
</defs>
</svg> 
